<?xml version="1.0" encoding="utf-8"?>
<!-- Generator: Adobe Illustrator 25.2.1, SVG Export Plug-In . SVG Version: 6.00 Build 0)  -->
<svg version="1.1" id="Layer_1" xmlns="http://www.w3.org/2000/svg" xmlns:xlink="http://www.w3.org/1999/xlink" x="0px" y="0px"
	 viewBox="0 0 100 50.6" style="enable-background:new 0 0 100 50.6;" xml:space="preserve">
<style type="text/css">
	.st0{fill:#828282;}
</style>
<g>
	<g>
		<path class="st0" d="M17.2,8L7.6,1.2C7.5,1.2,7.5,0.8,7.5,0.8h14l-2.3,6.9l11.9,14.5V5.2l-4.1-4c-0.2-0.1-0.2-0.4-0.2-0.4h20.2
			c0,0,0,0.4-0.2,0.4l-4.1,4v32.3l4.1,4c0.2,0.1,0.2,0.5,0.2,0.5H26.9c0,0,0-0.4,0.2-0.5l4.1-4V24.9l-1.5-1.8L18.1,38.2L0.7,49.8
			L0,49.6l21.6-36.2L17.2,8z"/>
		<path class="st0" d="M53.9,42h20.4c0,0,0-0.4-0.2-0.5l-4.1-4V24.5l9.7,15.1L99.3,49l0.7-0.2L83.9,25.2l-11.8-2.1h1.7
			c21,0,21-22.3,0-22.3h-20c0,0,0,0.4,0.2,0.4l4.1,4v32.3l-4.1,4C53.9,41.6,53.9,42,53.9,42z M70,2.5h1.2c8.7,0,8.7,19,0,19H70V2.5z
			"/>
	</g>
</g>
</svg>
